<?xml version="1.0" encoding="UTF-8" standalone="no"?>
<svg
   xmlns:dc="http://purl.org/dc/elements/1.1/"
   xmlns:cc="http://creativecommons.org/ns#"
   xmlns:rdf="http://www.w3.org/1999/02/22-rdf-syntax-ns#"
   xmlns:svg="http://www.w3.org/2000/svg"
   xmlns="http://www.w3.org/2000/svg"
   id="svg8"
   version="1.1"
   viewBox="0 0 60.62178 50"
   height="50mm"
   width="60.62178mm">
  <defs
     id="defs2" />
  <metadata
     id="metadata5">
    <rdf:RDF>
      <cc:Work
         rdf:about="">
        <dc:format>image/svg+xml</dc:format>
        <dc:type
           rdf:resource="http://purl.org/dc/dcmitype/StillImage" />
        <dc:title></dc:title>
      </cc:Work>
    </rdf:RDF>
  </metadata>
  <g
     transform="translate(-43.301269,-97)"
     id="layer1">
    <path
       id="path3749"
       d="m 51.961523,147 8.660254,-5 v -40 l -8.660254,5 z"
       style="fill:#ff7f2a;stroke:none;stroke-width:0.26458332px;stroke-linecap:butt;stroke-linejoin:miter;stroke-opacity:1" />
    <path
       id="path3751"
       transform="matrix(0.26458333,0,0,0.26458333,43.301269,97)"
       d="M 32.732422 0 L 0 18.898438 L 114.56055 85.039062 L 229.12109 18.898438 L 196.39062 0 L 114.56055 47.244141 L 32.732422 0 z "
       style="fill:#ffb380;stroke:none;stroke-width:0.99999994px;stroke-linecap:butt;stroke-linejoin:miter;stroke-opacity:1" />
    <path
       id="path3753"
       transform="matrix(0.26458333,0,0,0.26458333,43.301269,97)"
       d="M 0 18.898438 L 0 170.07812 L 32.732422 188.97656 L 32.732422 75.589844 L 114.56055 122.83398 L 114.56055 85.039062 L 32.732422 37.794922 L 0 18.898438 z "
       style="fill:#d45500;stroke:none;stroke-width:0.99999994px;stroke-linecap:butt;stroke-linejoin:miter;stroke-opacity:1" />
    <path
       id="path3757"
       transform="matrix(0.26458333,0,0,0.26458333,43.301269,97)"
       d="M 229.12109 18.898438 L 196.39062 37.794922 L 114.56055 85.039062 L 114.56055 122.83398 L 196.39062 75.589844 L 196.39062 188.97656 L 229.12109 170.07812 L 229.12109 18.898438 z "
       style="fill:#ff7f2a;stroke:none;stroke-width:0.99999994px;stroke-linecap:butt;stroke-linejoin:miter;stroke-opacity:1" />
    <path
       id="path3765"
       d="m 86.60254,122 v 20 l 8.660254,5 v -30 l -8.660254,5"
       style="fill:#ffb380;stroke:none;stroke-width:0.26458332px;stroke-linecap:butt;stroke-linejoin:miter;stroke-opacity:1" />
  </g>
</svg>
